HIERARCHY
ROOT Hips
{
  OFFSET -278.59 84.7576 257.706
  CHANNELS 6 Xposition Yposition Zposition Zrotation Xrotation Yrotation
  JOINT ToSpine
  {
    OFFSET -0.0105055 1.38907 -7.13956
    CHANNELS 3 Zrotation Xrotation Yrotation
    JOINT Spine
    {
      OFFSET 0.0105055 10 1
      CHANNELS 3 Zrotation Xrotation Yrotation
      JOINT Spine1
      {
        OFFSET 0 12 1.60637
        CHANNELS 3 Zrotation Xrotation Yrotation
        JOINT Neck
        {
          OFFSET 0 27 2.26658
          CHANNELS 3 Zrotation Xrotation Yrotation
          JOINT Head
          {
            OFFSET 0 9 2.12705
            CHANNELS 3 Zrotation Xrotation Yrotation
            End Site
            {
              OFFSET 0 11 2
            }
          }
        }
        JOINT LeftShoulder
        {
          OFFSET 8 19.6109 2.86452
          CHANNELS 3 Zrotation Xrotation Yrotation
          JOINT LeftArm
          {
            OFFSET 12 1 0.681055
            CHANNELS 3 Zrotation Xrotation Yrotation
            JOINT LeftForeArm
            {
              OFFSET 19 0 -1.52608
              CHANNELS 3 Zrotation Xrotation Yrotation
              JOINT LeftHand
              {
                OFFSET 23 0 0
                CHANNELS 3 Zrotation Xrotation Yrotation
                End Site
                {
                  OFFSET 10 0 0
                }
              }
            }
          }
        }
        JOINT RightShoulder
        {
          OFFSET -8 19.6109 2.86452
          CHANNELS 3 Zrotation Xrotation Yrotation
          JOINT RightArm
          {
            OFFSET -12 1 0.681055
            CHANNELS 3 Zrotation Xrotation Yrotation
            JOINT RightForeArm
            {
              OFFSET -19 0 -1.52608
              CHANNELS 3 Zrotation Xrotation Yrotation
              JOINT RightHand
              {
                OFFSET -23 0 0
                CHANNELS 3 Zrotation Xrotation Yrotation
                End Site
                {
                  OFFSET -10 0 0
                }
              }
            }
          }
        }
      }
    }
  }
  JOINT LeftUpLeg
  {
    OFFSET 9 -7.17245 0
    CHANNELS 3 Zrotation Xrotation Yrotation
    JOINT LeftLeg
    {
      OFFSET 0 -44.1113 0
      CHANNELS 3 Zrotation Xrotation Yrotation
      JOINT LeftFoot
      {
        OFFSET 0 -36.1829 0
        CHANNELS 3 Zrotation Xrotation Yrotation
        JOINT LeftToeBase
        {
          OFFSET 0 -4.84184 13
          CHANNELS 3 Zrotation Xrotation Yrotation
          End Site
          {
            OFFSET 0 1 6
          }
        }
      }
    }
  }
  JOINT RightUpLeg
  {
    OFFSET -9 -7.17245 0
    CHANNELS 3 Zrotation Xrotation Yrotation
    JOINT RightLeg
    {
      OFFSET 0 -44.0551 0
      CHANNELS 3 Zrotation Xrotation Yrotation
      JOINT RightFoot
      {
        OFFSET 0 -36.1469 0
        CHANNELS 3 Zrotation Xrotation Yrotation
        JOINT RightToeBase
        {
          OFFSET 0 -4.92256 13
          CHANNELS 3 Zrotation Xrotation Yrotation
          End Site
          {
            OFFSET 0 1 6
          }
        }
      }
    }
  }
}
MOTION
Frames:	19
Frame Time:	0.0333333
-279.138 84.8992 258.288 11.348 -10.7624 136.396 0 0 0 -3.43737 0.271701 -5.5166 23.4708 3.77928 -10.6719 7.97746 16.5288 4.72411 -11.7512 -0.349957 10.9117 -34.3055 3.66646 -5.56283 -42.4008 16.323 -18.1861 -4.20327 -9.34448 2.57403 -3.68568 0.0446814 -1.35908 26.5794 4.45719 10.0631 46.7121 -7.5498 -20.2701 -1.17977 -27.003 -4.29404 7.84702 0.282743 4.12394 7.67936 35.2891 14.0517 -1.052 1.22474 -7.01052 3.71105 -23.2188 0.770959 1.74616 -16.7983 -6.36331 17.8387 -35.022 -8.83432 0.0585946 37.8512 17.6105 -20.5797 1.2987 0.254499 3.64644 -13.4911 -5.16019 
-275.268 83.7105 254.005 11.3676 -10.3023 134.539 0 0 0 -1.49754 -0.577533 -4.76993 21.4309 3.07449 -9.45417 4.99478 17.0226 5.87623 -11.0464 0.267079 10.6952 -36.031 3.70398 -5.27583 -44.3093 20.1921 -14.9713 -5.42877 -15.2491 4.39695 -5.50327 0.0380848 -0.815631 26.7588 4.99051 11.5852 46.06 -5.91602 -18.6989 -0.958902 -26.3034 -5.17377 8.36498 0.401981 5.48158 7.23529 33.0266 14.248 0.0225848 14.1773 -5.28482 5.30828 -18.298 0.838599 2.03906 -30.9029 -4.89061 18.5532 -35.0203 -5.47505 -0.123337 48.011 14.5949 -23.828 -6.33065 -1.35857 4.38791 -16.7184 -4.88708 
-271.06 83.3292 249.206 12.5176 -8.35191 132.298 0 0 0 1.05352 0.687077 -3.57087 18.7793 3.29195 -7.96461 1.09938 16.0524 7.70617 -9.31996 0.404901 10.4504 -37.4908 3.74817 -5.07342 -45.8006 20.8641 -10.7753 -5.74733 -19.0312 4.86117 -6.00467 -0.102225 1.96701 26.3761 5.03104 11.8811 44.9776 -3.46169 -15.5704 0.470714 -24.8302 -3.28595 6.53155 0.328289 5.73945 7.96641 28.921 12.9041 0.333418 34.3011 -6.36018 5.16411 -12.802 0.614563 1.81064 -21.4604 -12.7993 18.3399 -30.1197 -3.80678 0.0221602 53.7686 12.9203 -28.2853 -12.2055 -3.09233 5.05512 -19.554 -4.83938 
-267.488 83.8871 245.372 12.037 -7.46162 133.128 0 0 0 3.57242 1.70031 -3.05448 15.1069 2.27411 -6.79755 -1.63579 13.5431 8.34912 -7.76202 0.406878 9.56075 -37.6466 3.57439 -4.64474 -44.6362 17.8414 -8.3653 -5.14406 -18.5174 4.93251 -6.24864 -0.162767 3.01153 25.2929 4.88498 11.9288 44.8272 -3.16287 -11.0906 0.981446 -23.4198 -1.81463 4.74558 0.229368 5.52452 11.2982 17.5159 10.4683 -0.889652 57.7145 -15.166 7.90666 -1.48588 0.0381975 1.06623 -11.7572 -0.659861 16.7204 -26.3469 -4.76688 -0.000471966 54.9529 11.2813 -30.845 -16.7074 -4.63759 4.98471 -19.2469 -4.76619 
-264.498 84.8005 242.227 11.4237 -6.45924 134.304 0 0 0 7.55278 4.07074 -1.72574 8.54652 0.355198 -4.03722 -1.15947 10.9728 6.51087 -6.99576 0.477469 7.69175 -35.0392 3.43286 -4.83767 -43.8403 13.7685 -5.75158 -3.64717 -16.122 3.35067 -5.27583 -0.0685352 1.43944 24.4757 4.75894 11.9105 44.8382 -4.41247 -7.79186 1.14826 -23.8974 -0.208259 4.28881 0.212103 5.68356 13.3191 4.69319 8.14356 -1.04479 78.8506 -20.6719 10.9272 -3.75709 0.384457 0.845265 -7.08692 -2.47855 15.1618 -22.3251 -5.84587 0.00260847 53.8474 10.4458 -33.9366 -18.3999 -5.66308 5.12798 -20.2616 -6.40398 
-261.817 86.6516 239.119 9.55641 -4.23721 135.073 0 0 0 9.39628 5.61332 -0.049124 2.2184 -0.0561362 -1.03113 -0.67064 10.95 3.95047 -5.53302 -0.131755 4.95286 -33.948 3.359 -4.88003 -40.0225 12.1828 -7.10938 -3.18271 -13.7582 3.60672 -4.2013 0.0119841 -0.346941 22.9115 4.66725 12.3833 45.4681 -5.47939 -4.86403 0.809159 -24.5115 -0.330235 3.34877 0.144324 4.96873 10.6892 -8.36586 5.83842 175.918 86.4298 170.007 12.5185 -8.88537 0.971482 1.00678 -3.60201 -3.63524 11.441 -17.4918 -7.45531 0.0561476 50.3797 10.0525 -31.4735 -20.3713 -5.76399 5.02535 -19.1728 -3.78891 
-259.044 89.8987 235.977 7.81847 -1.66681 136.969 0 0 0 9.2548 5.38715 1.40202 -1.96257 2.72728 1.31361 1.53007 11.7097 0.764779 -4.84721 -0.485393 2.42278 -33.402 3.31404 -4.88173 -36.6133 10.0959 -9.95932 -2.77578 -11.4074 3.13279 -4.35907 0.0131828 -0.326767 22.8424 4.73542 12.6444 44.5176 -4.67529 -2.73657 1.14648 -21.981 0.534464 0.934941 0.0255608 3.22167 6.10722 -20.0201 2.65624 179.654 80.7414 178.944 16.0207 -11.5439 1.636 1.02995 -1.5192 -4.12417 7.14066 -11.3738 -10.6798 -0.0883784 44.07 13.4523 -27.067 -15.1087 -3.60306 5.78559 -22.0178 -3.12955 
-255.887 94.2616 232.671 6.9568 2.21249 137.073 0 0 0 7.46379 7.46941 3.2196 -5.18666 3.68835 4.1501 6.36584 16.9269 -3.08109 -4.77888 -3.09346 0.624539 -32.2742 3.54729 -5.73756 -35.0269 8.92732 -10.6338 -2.44424 -11.564 2.7914 -4.8852 -0.062762 1.46443 23.3102 5.03387 13.3926 44.1052 -3.89349 -2.59517 1.78982 -20.4477 2.31389 3.06526 0.158285 5.41225 0.870523 -25.9292 -0.219471 -179.102 84.3928 -175.206 17.9348 -12.4898 1.97882 0.165113 -1.63686 -0.243089 4.08883 -3.58098 -9.58631 0.00620884 35.5032 14.1611 -17.1588 -4.06765 -0.775183 6.91763 -24.5068 1.85387 
-252.517 98.0477 229.036 6.42259 4.55871 136.647 0 0 0 6.44674 9.82139 4.16855 -7.66932 2.6669 6.01682 10.9044 21.519 -5.91741 -3.91753 -4.61719 -0.149231 -30.1402 3.64218 -6.53757 -35.0439 10.1647 -8.48533 -2.48482 -9.16288 0.88599 -6.64305 -0.140293 2.39409 23.0535 5.15409 13.9353 45.1211 -2.19783 -1.99121 2.40803 -20.4404 3.0931 4.04986 0.226552 6.4702 -2.98126 -29.666 -3.40667 -0.346271 88.1681 6.17627 16.8206 -14.0028 2.07365 0.439664 1.70451 -2.25882 3.49124 1.70724 -4.51963 0.0316201 29.3929 11.9132 -18.5971 9.69375 1.70012 7.62388 -27.2943 0.26687 
-248.978 100.724 224.691 5.28117 7.22814 133.172 0 0 0 6.30529 8.87121 5.85563 -11.9002 6.12206 9.06957 13.3699 22.6549 -7.31082 -3.08704 -5.04098 -0.462412 -27.512 3.58365 -7.12233 -36.4999 12.0294 -7.11203 -2.63685 -9.03301 0.411894 -5.38412 -0.137065 2.94803 21.9992 5.02135 14.0796 47.0013 -1.57391 0.727771 2.51969 -20.3906 3.1979 4.5229 0.301746 7.60716 -6.2212 -30.5147 -3.78191 0.083232 78.7191 2.41469 18.0332 -16.6466 2.66616 0.522855 1.17821 -2.40775 1.34078 4.36072 1.63449 0.0257402 29.7248 10.5147 -20.1081 13.6635 2.42149 5.48628 -21.1058 -3.53203 
-245.619 102.127 220.543 4.01991 6.89512 131.707 0 0 0 7.1112 8.78683 5.809 -14.1633 5.30516 9.49649 12.1565 23.8586 -6.54291 -2.43451 -4.67806 -0.265254 -29.5756 3.42156 -6.0925 -34.8329 13.9973 -4.25863 -3.18349 -11.1313 -0.0884531 -4.96121 -0.142944 3.30843 21.6428 5.10912 14.5954 48.171 0.129154 2.74814 2.6582 -19.1418 2.78967 3.63834 0.253264 7.96936 -7.79048 -32.6523 -5.4838 0.278571 68.7461 -2.15439 20.0315 -17.374 3.09012 0.525508 -2.36462 -1.71583 0.647877 4.53674 -0.659819 -0.129096 27.893 17.6025 -18.7712 13.9299 2.27778 5.74977 -22.5492 -5.13441 
-242.38 102.851 216.475 2.89793 5.99808 131.616 0 0 0 8.22332 8.03538 5.40346 -15.6146 4.52178 9.3183 11.5564 24.6649 -6.48064 -2.3231 -4.03947 -0.437478 -31.1313 3.42693 -5.69334 -34.962 14.4964 -2.90294 -3.50163 -12.8805 2.95742 -4.27117 -0.0849898 2.23832 22.6721 5.50702 15.3334 48.0805 1.07724 3.53767 2.85104 -19.6388 2.47643 3.09029 0.197282 7.29971 -9.94003 -33.3625 -9.93688 -0.0703682 57.1123 -1.01061 18.7388 -17.4765 2.90607 1.02909 -5.12275 -3.50539 0.896767 4.3456 -4.17398 -0.0764817 23.4744 19.447 -8.34491 10.118 0.814418 4.70477 -18.0407 -4.92054 
-238.928 102.344 212.387 2.3683 5.23749 131.133 0 0 0 8.97309 7.43206 5.24069 -15.7943 4.42163 9.13548 9.16166 24.5575 -5.23073 -1.10596 -3.57328 -0.590845 -31.7923 3.21068 -4.97004 -37.5112 15.3981 -0.443131 -3.62149 -15.5826 2.24253 -3.75159 -0.0581247 1.78825 22.2273 5.44588 15.401 49.5515 1.21808 4.24363 2.92415 -19.5832 2.73772 2.55812 0.154038 6.88719 -11.1089 -32.74 -12.9339 -0.135358 45.4818 2.25891 18.8497 -15.5005 2.58766 1.151 -6.43424 -3.97094 2.23071 4.70906 -5.16112 0.428074 19.2427 12.7485 -7.80805 5.87424 0.380735 3.58358 -13.2263 -5.5465 
-235.357 100.698 208.287 1.71717 4.57385 130.343 0 0 0 9.67973 7.04867 5.36654 -16.2159 3.97162 9.23963 7.96564 23.8492 -4.41327 -0.291635 -3.07939 -0.545936 -31.6635 3.05562 -4.58608 -41.0153 13.6538 2.62965 -3.3808 -16.3826 -0.828121 -4.32002 -0.0828191 2.1807 22.2606 5.43181 15.3329 51.0187 1.23559 4.76512 2.90092 -19.7049 2.71669 2.61614 0.158507 6.93277 -10.736 -32.6557 -11.3602 0.0163565 35.0716 1.02105 16.5296 -16.145 2.35482 0.770563 -3.21569 -2.59185 3.39685 4.94402 -5.07413 0.537787 15.851 4.76743 -11.0021 2.29321 0.213808 2.9588 -10.2033 -5.09684 
-231.66 98.2645 203.895 1.42351 3.95248 128.66 0 0 0 11.492 6.9922 6.09419 -17.1013 3.27881 10.0032 6.37911 22.6717 -3.80486 1.09542 -2.3921 -1.04789 -32.7932 2.98802 -4.17484 -42.6087 12.7106 3.93931 -3.36978 -18.2628 -1.70717 -3.81175 -0.0797504 2.40098 21.7724 5.34743 15.3426 52.7122 1.31211 4.70822 2.81905 -19.704 2.29242 2.66236 0.118603 5.0876 -9.53853 -32.7147 -7.89511 0.107871 26.4204 -3.84961 13.2401 -17.1524 2.00793 0.699231 1.00607 -3.09994 3.48066 4.29888 -6.83384 1.31043 19.1089 -0.551693 -14.2659 2.74364 0.430264 6.24896 -22.9093 1.01254 
-228.762 94.3954 199.796 0.106298 5.65066 125.553 0 0 0 11.2181 9.04503 6.98929 -19.1121 1.61913 11.1857 2.58061 22.0264 -1.95557 3.89699 -2.72944 -1.56727 -36.5934 2.89804 -3.28163 -41.2364 10.9748 5.71363 -3.35997 -18.4494 -3.03666 -3.69653 -0.0759753 2.35428 21.3126 5.63539 16.6428 53.6037 1.98064 4.80141 2.75952 -22.878 0.476061 2.85107 0.0931747 3.75275 -10.6392 -34.9084 -6.42932 -0.662856 22.3001 -7.86386 13.1312 -11.4921 1.31632 0.643833 -2.70484 -2.21243 -0.163925 5.56802 -9.28567 0.443421 26.7121 2.57202 -20.9882 -11.5041 -2.2819 7.54325 -27.9133 -1.58707 
-225.681 90.9306 195.352 -0.903494 6.37472 121.838 0 0 0 12.9918 10.1115 7.89464 -22.1389 0.914348 12.7039 -1.11489 18.7645 -0.0981682 6.32971 -1.28531 -1.95768 -40.6998 2.81492 -2.4828 -38.6268 8.32935 6.0846 -2.97557 -16.77 -3.33308 -3.76688 -0.0885087 2.68842 20.7725 5.7021 17.2492 54.2514 2.40713 6.94407 1.89473 -23.3872 -2.91097 3.09234 0.0752376 2.85704 -10.0864 -37.4025 -5.98354 -1.17661 20.2898 -11.5936 13.4573 -9.36742 1.10941 0.215856 -2.87346 -0.0885616 -4.27324 7.51702 -9.97755 -0.0200116 32.071 7.02158 -24.8668 -25.041 -5.59502 6.06406 -24.0407 -5.30904 
-221.442 88.9416 190.63 -2.05371 4.0093 120.421 0 0 0 18.5594 6.37007 8.60122 -26.5493 3.66884 14.48 -2.1183 13.7981 0.391668 6.20948 1.96739 -1.96338 -42.068 2.59386 -1.8432 -37.0358 8.29999 3.0152 -2.70104 -14.3045 -0.0589051 -3.41388 -0.0953793 3.20052 20.5049 5.63274 17.1882 55.3262 3.37108 9.00875 1.55563 -24.2942 -4.55736 0.0792601 -0.000726939 1.76571 -7.75263 -40.6 -5.6317 -0.749043 21.1211 -15.4859 13.7838 -8.48266 1.03076 0.536386 -0.952622 -2.08752 -3.89954 11.2842 -6.73931 -0.0732037 28.7522 5.12908 -20.6459 -31.0191 -5.78944 5.53033 -20.753 -1.56546 
-216.361 87.8134 185.57 -2.96667 3.12992 119.892 0 0 0 20.7357 2.06039 9.46137 -28.5431 6.28228 15.6764 -2.28577 13.1173 0.891724 6.87796 3.56811 -1.773 -42.4149 2.47416 -1.55731 -36.111 7.81532 2.16168 -2.3734 -8.17671 1.07653 -5.42237 -0.150502 3.19069 19.7899 5.4693 17.0963 57.3594 4.86454 8.94748 2.13506 -23.0267 -4.1287 2.32447 0.0999285 4.13719 -7.27501 -41.227 -4.4734 -0.238287 24.7495 -14.8429 16.8892 -6.71483 0.989852 0.714992 -2.80629 -2.41867 -4.21864 16.8018 -7.51468 -0.838047 23.1546 5.90871 -23.4624 -25.2437 -5.23342 7.87698 -30.4575 -4.68943 
